# xmcd
#
# Track frame offsets:
#	150
#	20917
#	39542
#
# Disc length: 858 seconds
#
# Revision: 0
# Processed by: cddbd v1.4b41PL2 Copyright (c) Steve Scherf et al.
# Submitted via: audiograbber 1.80
#
DISCID=21035803
DTITLE=Kenny Wayne Shepherd - Blue on Black
DYEAR=1900
DGENRE=
TTITLE0=Blue on Black - I
TTITLE1=Blue on Black - II
TTITLE2=Blue on Black - Album Version
EXTD=
EXTT0=
EXTT1=
EXTT2=
PLAYORDER=
